# Blender v2.78 (sub 0) OBJ File: 'Triangle.blend'
# www.blender.org
mtllib Triangle.mtl
o Cube
v 1.000000 -1.000000 -1.000000
v 1.000000 -1.000000 1.000000
v -1.000000 -1.000000 1.000000
v -1.000000 -1.000000 -1.000000
v -1.000000 1.000000 1.000000
v -1.000000 1.000000 -1.000000
vn 0.0000 -1.0000 0.0000
vn -1.0000 -0.0000 -0.0000
vn -0.0000 0.0000 1.0000
vn 0.0000 0.0000 -1.0000
vn 0.7071 0.7071 0.0000
usemtl Material
s off
f 2//1 4//1 1//1
f 3//2 6//2 4//2
f 3//3 2//3 5//3
f 4//4 6//4 1//4
f 6//5 2//5 1//5
f 2//1 3//1 4//1
f 3//2 5//2 6//2
f 6//5 5//5 2//5
